<?xml version="1.0" standalone="no"?>
<!DOCTYPE svg PUBLIC "-//W3C//DTD SVG 20010904//EN"
 "http://www.w3.org/TR/2001/REC-SVG-20010904/DTD/svg10.dtd">
<svg version="1.0" xmlns="http://www.w3.org/2000/svg"
 width="1920.000000pt" height="1460.000000pt" viewBox="0 0 1920.000000 1460.000000"
 preserveAspectRatio="xMidYMid meet">
<metadata>
Created by potrace 1.16, written by Peter Selinger 2001-2019
</metadata>
<g transform="translate(0.000000,1460.000000) scale(0.100000,-0.100000)"
fill="#000000" stroke="none">
<path d="M6887 10080 c-53 -10 -80 -32 -176 -146 -100 -119 -248 -339 -324
-484 -424 -805 -436 -1803 -31 -2611 56 -113 141 -260 169 -294 l17 -20 -7 20
c-3 11 -24 90 -45 175 -207 821 -136 1551 211 2175 208 374 540 747 923 1036
47 35 85 67 86 71 1 16 -317 64 -525 78 -168 11 -242 11 -298 0z"/>
<path d="M6105 10016 c-538 -170 -585 -187 -621 -218 -41 -37 -77 -103 -143
-271 -231 -580 -269 -1122 -121 -1734 184 -761 615 -1349 1297 -1769 153 -94
298 -167 435 -220 92 -35 268 -88 274 -82 1 2 -30 23 -69 47 -215 131 -420
293 -602 476 -434 435 -695 971 -792 1630 -13 92 -17 185 -18 395 0 288 6 353
51 572 85 409 277 816 560 1191 l36 47 -44 -1 c-24 0 -131 -28 -243 -63z"/>
<path d="M7998 9666 c-150 -69 -265 -138 -403 -242 -146 -109 -236 -193 -350
-326 -286 -333 -469 -737 -531 -1174 -19 -133 -24 -396 -10 -519 9 -78 9 -79
18 -40 51 230 88 371 125 479 233 682 688 1144 1368 1391 129 47 386 117 478
130 29 5 46 12 44 19 -7 21 -292 206 -418 271 -92 47 -137 65 -165 65 -26 0
-79 -18 -156 -54z"/>
<path d="M4693 9318 c-229 -184 -592 -571 -638 -681 -23 -56 -21 -363 5 -564
75 -583 260 -1082 559 -1508 435 -620 1213 -1129 1964 -1284 228 -47 386 -63
632 -63 300 0 599 38 829 106 l79 23 -189 6 c-893 31 -1617 325 -2193 890
-495 486 -804 1027 -935 1638 -52 241 -61 333 -61 654 0 328 10 440 66 718 33
165 33 167 19 167 -5 0 -67 -46 -137 -102z"/>
<path d="M8320 7320 l0 -990 185 0 185 0 0 289 0 289 348 4 c316 4 354 7 427
26 135 37 219 84 311 176 133 133 191 267 201 456 18 339 -163 606 -482 711
-69 23 -76 24 -622 27 l-553 3 0 -991z m1101 607 c167 -82 238 -276 168 -462
-28 -75 -87 -138 -167 -177 l-67 -33 -332 -3 -333 -3 0 356 0 356 338 -3 337
-3 56 -28z"/>
<path d="M10860 7320 l0 -990 185 0 185 0 0 720 c0 396 3 720 8 719 4 0 115
-149 247 -331 420 -580 379 -528 422 -528 l38 1 320 427 320 427 3 -717 2
-718 185 0 185 0 0 990 0 990 -212 0 -213 0 -200 -276 c-110 -152 -249 -343
-309 -426 -89 -123 -111 -147 -121 -136 -14 14 -367 497 -519 710 l-91 127
-217 1 -218 0 0 -990z"/>
<path d="M14497 8163 c-36 -82 -107 -240 -157 -353 -51 -113 -150 -333 -220
-490 -70 -157 -198 -442 -284 -633 -86 -192 -156 -350 -156 -353 0 -2 89 -4
198 -4 l197 0 85 186 85 186 519 -1 c286 -1 522 -4 526 -6 4 -2 42 -85 86
-184 l79 -181 203 0 c190 0 202 1 193 18 -7 15 -262 581 -522 1162 -43 96
-141 315 -217 485 l-140 310 -204 3 -205 2 -66 -147z m433 -630 c85 -197 167
-386 182 -420 l27 -63 -370 0 -370 0 6 21 c4 12 81 191 172 398 91 207 169
386 174 399 5 12 12 22 16 22 5 0 78 -161 163 -357z"/>
<path d="M3606 7882 c-26 -51 -111 -285 -145 -402 -107 -370 -166 -827 -127
-980 36 -141 234 -476 429 -729 105 -136 293 -330 438 -451 655 -549 1383
-811 2189 -787 390 11 763 81 1095 204 154 57 430 193 568 280 130 81 368 259
452 338 l60 56 -85 -42 c-337 -165 -689 -283 -1035 -345 -234 -42 -602 -57
-836 -34 -668 67 -1363 371 -1889 826 -558 483 -923 1153 -1073 1970 l-24 129
-17 -33z"/>
</g>
</svg>
